<?xml version="1.0" encoding="UTF-8" standalone="no"?><svg   xmlns:dc="http://purl.org/dc/elements/1.1/"   xmlns:cc="http://creativecommons.org/ns#"   xmlns:rdf="http://www.w3.org/1999/02/22-rdf-syntax-ns#"   xmlns:svg="http://www.w3.org/2000/svg"   xmlns="http://www.w3.org/2000/svg"   width="10"   height="10"   version="1.1">  <g     transform="translate(0,-1042.3622)"     style="display:inline">    <path       style="fill:#000000;fill-opacity:0.49411765;fill-rule:evenodd;stroke:none"       d="m 7.4242187,1042.3622 c -0.7235792,0 -1.3101562,0.5866 -1.3101562,1.3102 0,0.299 0.1043419,0.571 0.2729492,0.7915 0.2091024,0.1413 0.4656206,0.2184 0.7369629,0.2184 0.7235793,0 1.3101563,-0.5866 1.3101563,-1.3102 0,-0.2713 -0.077093,-0.5278 -0.2183594,-0.737 -0.2204941,-0.1686 -0.4925443,-0.2729 -0.7915528,-0.2729 z m 0,3.0843 c -0.7235792,0 -1.3101562,0.5866 -1.3101562,1.3102 0,0.299 0.1043419,0.571 0.2729492,0.7915 0.2091024,0.1413 0.4656206,0.2184 0.7369629,0.2184 0.7235793,0 1.3101563,-0.5866 1.3101563,-1.3102 0,-0.2713 -0.077093,-0.5278 -0.2183594,-0.7369 -0.2204941,-0.1686 -0.4925443,-0.273 -0.7915528,-0.273 z m -3.0843261,0 c -0.7235793,0 -1.3101563,0.5866 -1.3101563,1.3102 0,0.299 0.1043419,0.571 0.2729492,0.7915 0.2091024,0.1413 0.4656207,0.2184 0.7369629,0.2184 0.7235793,0 1.3101563,-0.5866 1.3101563,-1.3102 0,-0.2713 -0.077093,-0.5278 -0.2183594,-0.7369 -0.220494,-0.1686 -0.4925442,-0.273 -0.7915527,-0.273 z m -3.0297364,3.0298 C 0.58657693,1048.4763 0,1049.0628 0,1049.7864 c 0,0.299 0.1043419,0.5711 0.27294922,0.7916 0.20910229,0.1412 0.46562065,0.2183 0.73696288,0.2183 0.7235793,0 1.3101563,-0.5865 1.3101563,-1.3101 0,-0.2714 -0.077093,-0.5279 -0.2183594,-0.737 -0.2204941,-0.1686 -0.4925443,-0.2729 -0.7915528,-0.2729 z m 3.0297364,0 c -0.7235793,0 -1.3101563,0.5865 -1.3101563,1.3101 0,0.299 0.1043419,0.5711 0.2729492,0.7916 0.2091024,0.1412 0.4656207,0.2183 0.7369629,0.2183 0.7235793,0 1.3101563,-0.5865 1.3101563,-1.3101 0,-0.2714 -0.077093,-0.5279 -0.2183594,-0.737 -0.220494,-0.1686 -0.4925442,-0.2729 -0.7915527,-0.2729 z m 3.0843261,0 c -0.7235792,0 -1.3101562,0.5865 -1.3101562,1.3101 0,0.299 0.1043419,0.5711 0.2729492,0.7916 0.2091024,0.1412 0.4656206,0.2183 0.7369629,0.2183 0.7235793,0 1.3101563,-0.5865 1.3101563,-1.3101 0,-0.2714 -0.077093,-0.5279 -0.2183594,-0.737 -0.2204941,-0.1686 -0.4925443,-0.2729 -0.7915528,-0.2729 z"/>  </g>  <g     style="display:inline">    <path       style="fill:#ffffff;fill-opacity:1;fill-rule:evenodd;stroke:none"       d="m 8.2157715,0.27294922 c 0.1412667,0.20910229 0.2183594,0.46562065 0.2183594,0.73696288 0,0.7235793 -0.586577,1.3101563 -1.3101563,1.3101563 -0.2713423,0 -0.5278605,-0.077093 -0.7369629,-0.2183594 0.2394104,0.3130859 0.6126362,0.5186035 1.037207,0.5186035 0.7235793,0 1.3101563,-0.586577 1.3101563,-1.3101563 0,-0.42457076 -0.2055176,-0.79779659 -0.5186035,-1.03720698 z m 0,3.08432618 c 0.1412667,0.2091023 0.2183594,0.4656206 0.2183594,0.7369629 0,0.7235793 -0.586577,1.3101562 -1.3101563,1.3101562 -0.2713423,0 -0.5278605,-0.077093 -0.7369629,-0.2183593 0.2394104,0.3130859 0.6126362,0.5186035 1.037207,0.5186035 0.7235793,0 1.3101563,-0.586577 1.3101563,-1.3101563 0,-0.4245708 -0.2055176,-0.7977967 -0.5186035,-1.037207 z m -3.0843262,0 c 0.1412667,0.2091023 0.2183594,0.4656206 0.2183594,0.7369629 0,0.7235793 -0.586577,1.3101562 -1.3101563,1.3101562 -0.2713422,0 -0.5278605,-0.077093 -0.7369629,-0.2183593 0.2394104,0.3130859 0.6126363,0.5186035 1.0372071,0.5186035 0.7235793,0 1.3101562,-0.586577 1.3101562,-1.3101563 0,-0.4245708 -0.2055175,-0.7977967 -0.5186035,-1.037207 z M 2.101709,6.3870117 c 0.1412667,0.2091024 0.2183594,0.4656206 0.2183594,0.7369629 0,0.7235793 -0.586577,1.3101563 -1.3101563,1.3101563 -0.27134223,0 -0.52786059,-0.077093 -0.73696288,-0.2183594 0.23941039,0.3130859 0.61263622,0.5186035 1.03720698,0.5186035 0.7235793,0 1.3101563,-0.586577 1.3101563,-1.3101563 0,-0.4245708 -0.2055176,-0.7977966 -0.5186035,-1.037207 z m 3.0297363,0 c 0.1412667,0.2091024 0.2183594,0.4656206 0.2183594,0.7369629 0,0.7235793 -0.586577,1.3101563 -1.3101563,1.3101563 -0.2713422,0 -0.5278605,-0.077093 -0.7369629,-0.2183594 0.2394104,0.3130859 0.6126363,0.5186035 1.0372071,0.5186035 0.7235793,0 1.3101562,-0.586577 1.3101562,-1.3101563 0,-0.4245708 -0.2055175,-0.7977966 -0.5186035,-1.037207 z m 3.0843262,0 c 0.1412667,0.2091024 0.2183594,0.4656206 0.2183594,0.7369629 0,0.7235793 -0.586577,1.3101563 -1.3101563,1.3101563 -0.2713423,0 -0.5278605,-0.077093 -0.7369629,-0.2183594 0.2394104,0.3130859 0.6126362,0.5186035 1.037207,0.5186035 0.7235793,0 1.3101563,-0.586577 1.3101563,-1.3101563 0,-0.4245708 -0.2055176,-0.7977966 -0.5186035,-1.037207 z" />  </g></svg>