<?xml version="1.0" standalone="no"?>
<!DOCTYPE svg PUBLIC "-//W3C//DTD SVG 20010904//EN"
 "http://www.w3.org/TR/2001/REC-SVG-20010904/DTD/svg10.dtd">
<svg version="1.0" xmlns="http://www.w3.org/2000/svg"
 width="736.000000pt" height="736.000000pt" viewBox="0 0 736.000000 736.000000"
 preserveAspectRatio="xMidYMid meet">
<metadata>
Created by potrace 1.14, written by Peter Selinger 2001-2017
</metadata>
<g transform="translate(0.000000,736.000000) scale(0.100000,-0.100000)"
fill="#000000" stroke="none">
<path d="M3459 7345 c-2 -2 -45 -6 -94 -9 -50 -4 -99 -8 -111 -10 -12 -2 -45
-7 -75 -11 -30 -3 -61 -8 -69 -10 -8 -2 -35 -7 -60 -10 -61 -9 -166 -31 -264
-56 -45 -12 -88 -22 -96 -24 -57 -13 -308 -99 -405 -140 -22 -9 -58 -24 -80
-33 -93 -39 -369 -184 -475 -251 -236 -149 -392 -271 -601 -470 -68 -64 -86
-86 -76 -95 7 -6 80 -65 162 -131 83 -66 157 -125 165 -132 8 -7 112 -89 230
-184 398 -319 515 -413 551 -444 20 -16 44 -37 55 -45 58 -46 394 -322 424
-349 37 -32 49 -37 51 -21 1 6 2 13 3 18 1 4 5 25 9 47 29 152 104 306 291
594 l139 215 -24 15 c-13 9 -46 36 -72 60 -169 156 -217 368 -127 556 46 96
122 165 208 190 204 61 412 -47 524 -273 23 -45 39 -84 37 -87 -3 -2 -36 -7
-74 -10 -94 -8 -173 -24 -210 -43 -29 -15 -29 -15 -7 -23 13 -5 85 -31 160
-59 75 -28 167 -62 204 -76 l67 -25 -37 -60 c-39 -64 -167 -199 -213 -226 -32
-19 -44 -40 -30 -57 18 -22 99 -192 119 -253 20 -58 57 -191 67 -244 5 -22 15
-88 31 -194 7 -49 14 -430 7 -453 -4 -16 -39 -17 -450 -18 -351 -1 -450 2
-462 12 -9 7 -79 63 -156 125 -77 62 -154 124 -171 138 -17 14 -40 33 -50 41
-104 82 -220 175 -224 180 -3 3 -48 39 -100 80 -52 41 -104 83 -115 92 -11 9
-211 171 -445 359 -234 188 -439 354 -456 368 -17 14 -40 33 -50 41 -54 43
-141 113 -158 127 -18 15 -21 14 -39 -8 -10 -13 -29 -36 -42 -51 -42 -47 -170
-220 -232 -313 -116 -174 -227 -378 -302 -555 -18 -41 -36 -84 -41 -95 -44
-95 -129 -361 -170 -528 -40 -169 -71 -363 -87 -542 -10 -111 -10 -500 -1
-615 7 -88 42 -334 57 -405 133 -624 377 -1141 766 -1620 92 -114 333 -361
443 -456 87 -74 292 -229 304 -229 5 0 7 8 4 18 -3 9 -44 170 -91 357 -48 187
-88 347 -90 355 -2 8 -21 78 -42 155 l-37 140 78 195 c44 107 116 286 162 397
l84 203 -31 51 c-128 219 -181 419 -174 664 8 295 117 558 314 756 124 125
257 199 425 236 66 14 402 27 433 15 9 -3 12 -84 12 -330 0 -365 3 -417 30
-525 33 -128 79 -222 168 -342 78 -106 114 -138 375 -340 56 -44 108 -84 114
-90 7 -5 79 -62 162 -125 87 -67 152 -123 154 -135 6 -34 2 -679 -5 -705 -4
-14 -10 -41 -13 -60 -3 -19 -22 -69 -42 -110 -81 -173 -274 -291 -520 -316
l-62 -7 -1 157 c0 86 0 176 0 201 0 25 0 49 0 54 1 5 24 11 52 15 28 4 69 14
90 23 45 18 119 96 120 127 0 12 3 30 5 41 5 19 6 232 1 285 -1 18 -15 33 -52
54 -86 51 -519 308 -542 322 -22 14 -25 11 -89 -87 -103 -156 -214 -291 -358
-435 -153 -152 -295 -266 -474 -379 -2 -2 42 -126 58 -160 5 -11 30 -81 55
-155 26 -74 73 -211 105 -305 32 -93 79 -227 104 -297 25 -71 42 -128 38 -129
-4 -1 -44 0 -89 1 -46 1 -83 -1 -83 -5 0 -8 245 -125 375 -178 179 -73 458
-157 637 -193 47 -9 194 -34 233 -39 22 -3 54 -8 70 -10 118 -19 580 -27 746
-13 387 33 786 134 1149 291 126 54 376 181 401 203 8 8 19 14 23 14 19 0 301
196 421 291 72 57 198 171 281 254 135 135 172 175 272 295 57 69 128 165 135
182 4 13 -82 87 -386 331 -216 172 -435 349 -488 393 -52 43 -113 93 -133 109
-21 17 -53 43 -70 58 -37 33 -72 55 -61 38 11 -19 8 -293 -5 -377 -32 -210
-139 -388 -278 -462 -65 -35 -164 -62 -229 -62 l-43 0 0 184 1 185 57 31 c135
75 154 120 157 373 l3 167 -292 0 -292 0 -13 -52 c-7 -29 -26 -100 -41 -158
-16 -58 -63 -238 -105 -400 -95 -361 -196 -739 -225 -840 -12 -41 -24 -85 -27
-97 -3 -14 8 -46 32 -89 31 -55 204 -337 251 -409 14 -21 13 -21 -211 -20
l-224 0 -60 125 c-91 192 -86 157 -67 480 3 41 8 127 11 190 4 63 8 147 10
185 3 39 7 120 10 180 18 327 25 458 30 515 4 51 17 238 19 289 2 36 -21 60
-194 201 -30 25 -57 47 -60 51 -3 3 -38 31 -78 62 l-72 56 41 48 c23 26 64 73
93 103 84 90 132 151 169 220 52 93 69 147 82 245 3 22 8 58 11 80 4 22 7 274
9 560 l2 520 38 70 c115 210 312 450 485 590 136 110 236 175 363 235 199 95
353 132 557 134 193 2 301 -15 448 -71 54 -20 179 -78 191 -89 2 -2 -48 -54
-111 -116 l-114 -113 2 -180 c1 -160 -2 -218 -21 -345 -3 -19 -19 -82 -34
-140 -49 -174 -50 -189 -56 -508 -4 -251 -13 -309 -58 -369 -65 -88 -168 -125
-250 -89 -87 38 -135 128 -152 286 -3 25 -8 56 -10 70 -3 14 -7 41 -10 62 -10
78 -52 174 -93 212 -19 16 -21 14 -75 -76 -132 -222 -240 -483 -302 -727 l-16
-65 28 -25 c15 -14 54 -46 85 -71 31 -25 105 -84 165 -132 245 -197 603 -485
639 -513 21 -16 133 -106 249 -200 115 -93 277 -224 359 -290 82 -66 154 -124
160 -130 6 -5 34 -28 61 -50 28 -21 52 -42 55 -45 12 -12 197 -150 202 -150
11 0 93 144 184 325 143 283 277 684 320 952 3 19 8 45 10 57 4 19 19 119 29
191 27 193 27 661 0 855 -2 14 -6 52 -10 85 -6 48 -62 336 -80 405 -52 210
-169 519 -280 741 -202 402 -491 775 -856 1105 -246 223 -633 467 -964 608
-60 26 -119 51 -130 56 -25 11 -202 72 -270 94 -55 17 -273 72 -320 80 -106
20 -145 26 -180 31 -22 3 -51 8 -65 10 -27 5 -86 13 -160 21 -57 6 -556 15
-561 9z m-464 -406 c88 -24 214 -111 246 -171 8 -15 6 -18 -13 -18 -44 0 -154
-33 -212 -63 -107 -56 -173 -141 -222 -283 -19 -53 -22 -169 -10 -414 8 -189
-17 -279 -104 -368 -81 -81 -202 -88 -311 -15 -47 31 -52 44 -35 96 32 96 37
157 38 436 2 317 16 408 85 546 44 85 137 181 214 218 100 49 223 63 324 36z
m345 -2566 c3 -65 3 -277 0 -458 -1 -66 -2 -130 -1 -142 1 -22 3 -23 160 -25
l158 -3 -47 -125 c-43 -113 -145 -364 -189 -465 -10 -22 -40 -94 -67 -159
l-48 -120 -10 40 c-9 39 -11 219 -7 488 1 76 0 140 -2 142 -2 3 -73 5 -156 6
-84 1 -154 4 -156 8 -3 5 16 55 55 145 10 22 43 103 75 180 31 77 63 154 70
170 19 44 136 326 146 353 5 12 10 22 12 22 2 0 5 -26 7 -57z m-1630 -47 c63
-7 141 -28 220 -58 86 -33 89 -38 28 -63 -222 -90 -401 -217 -487 -344 -88
-130 -160 -315 -176 -452 -3 -30 -8 -70 -10 -89 -3 -19 -7 -75 -10 -125 -10
-170 -15 -240 -20 -265 -2 -14 -7 -43 -10 -65 -35 -249 -182 -459 -397 -568
-76 -38 -208 -82 -281 -92 -23 -3 -54 -8 -69 -11 -33 -5 -35 4 -9 48 30 51 86
194 114 294 48 166 87 427 102 673 12 184 19 237 51 369 98 400 339 667 664
736 111 23 168 26 290 12z"/>
<path d="M5335 5224 c-100 -30 -185 -66 -242 -103 -59 -38 -159 -134 -145
-139 5 -1 74 19 155 46 l146 49 11 -31 c14 -43 58 -248 66 -304 3 -26 8 -50
10 -53 2 -3 8 -34 14 -70 15 -95 23 -141 36 -219 13 -75 53 -255 84 -379 6
-24 15 -51 21 -60 8 -13 9 -13 5 4 -2 11 -7 58 -11 105 -9 120 -13 174 -19
260 -9 112 -15 196 -21 285 -3 44 -7 109 -10 145 -2 36 -7 115 -11 175 -3 61
-7 130 -9 155 -1 25 -3 69 -4 98 -1 58 -1 58 -76 36z"/>
</g>
</svg>
